<svg id="logo-50" class="gradient" width="100%"  viewBox="0 0 35 40" fill="none" xmlns="http://www.w3.org/2000/svg"><path d="M0.878785 28.1818L0.878788 9.39393L10.2727 14.6128L10.2727 23.0151L17.7879 27.2424L25.303 23.0151L25.303 14.6128L34.697 9.39393L34.697 28.1818L17.7879 37.5757L0.878785 28.1818Z" class="cneutral" fill="#192657"></path> <path fill-rule="evenodd" clip-rule="evenodd" d="M5.57576 12.0034L0.878784 9.39394L17.7879 0L34.697 9.39394L30 12.0034L30 25.8333L17.7879 32.8788L5.57575 25.8333L5.57576 12.0034ZM29.4912 12.2861L25.303 14.6128V14.5606L17.7879 10.3333L10.2727 14.5606V14.6128L6.08459 12.2861L6.08459 25.5443L17.7879 32.2962L29.4912 25.5443L29.4912 12.2861Z" fill="url(#paint500_linear_1501_1259)"></path><defs> <linearGradient id="paint500_linear_1501_1259" x1="5.57575" y1="7.30638" x2="30.9394" y2="7.30639" gradientUnits="userSpaceOnUse"> <stop class="ccustom" stop-color="#64C2DB"></stop> <stop offset="0.307292" class="ccompli1" stop-color="#7476ED"></stop> <stop offset="0.604167" class="ccompli1" stop-color="#C994DF"></stop> <stop offset="1" class="ccompli2" stop-color="#E56F8C"></stop> </linearGradient> </defs> </svg>